<?xml version="1.0" standalone="no"?>
<svg xmlns="http://www.w3.org/2000/svg" viewBox="0 0 172.6 29" width="172.6" height="29"><path fill="#4c4b59" fill-rule="nonzero" d="M7.13 4.44Q10.61 4.44 12.44 6.07Q14.28 7.70 14.28 11.06L14.28 11.06L14.28 11.88L4.78 11.88Q4.78 13.25 5.39 13.94Q6 14.64 7.32 14.64L7.32 14.64Q8.52 14.64 9.08 14.14Q9.65 13.63 9.65 12.79L9.65 12.79L14.28 12.79Q14.28 15.10 12.53 16.39Q10.78 17.69 7.42 17.69L7.42 17.69Q3.89 17.69 1.94 16.04Q0 14.40 0 11.06L0 11.06Q0 7.80 1.90 6.12Q3.79 4.44 7.13 4.44L7.13 4.44ZM7.32 7.49Q5.06 7.49 4.80 9.62L4.80 9.62L9.46 9.62Q9.46 8.64 8.89 8.06Q8.33 7.49 7.32 7.49L7.32 7.49ZM33.41 4.44Q35.57 4.44 36.65 5.68Q37.73 6.91 37.73 9.19L37.73 9.19L37.73 17.40L32.95 17.40L32.95 9.77Q32.95 8.95 32.56 8.46Q32.16 7.97 31.44 7.97L31.44 7.97Q30.60 7.97 30.07 8.54Q29.54 9.12 29.54 9.96L29.54 9.96L29.54 17.40L24.77 17.40L24.77 9.77Q24.77 8.95 24.37 8.46Q23.98 7.97 23.26 7.97L23.26 7.97Q22.42 7.97 21.89 8.54Q21.36 9.12 21.36 9.96L21.36 9.96L21.36 17.40L16.58 17.40L16.58 4.73L20.50 4.73L20.81 6.62Q21.53 5.62 22.72 5.03Q23.90 4.44 25.22 4.44L25.22 4.44Q28.08 4.44 29.06 6.62L29.06 6.62Q29.81 5.62 30.97 5.03Q32.14 4.44 33.41 4.44L33.41 4.44ZM47.14 4.44Q50.26 4.44 52.19 5.77Q54.12 7.10 54.12 9.84L54.12 9.84L49.49 9.84Q49.49 7.68 47.14 7.68L47.14 7.68Q44.78 7.68 44.78 10.39L44.78 10.39L44.78 11.76Q44.78 14.45 47.23 14.45L47.23 14.45Q49.68 14.45 49.68 12.24L49.68 12.24L54.12 12.24Q54.12 15.00 52.19 16.34Q50.26 17.69 47.14 17.69L47.14 17.69Q43.80 17.69 41.90 16.01Q40.01 14.33 40.01 11.06L40.01 11.06Q40.01 7.80 41.90 6.12Q43.80 4.44 47.14 4.44L47.14 4.44ZM63.14 4.44Q66.48 4.44 68.39 6.13Q70.30 7.82 70.30 11.06L70.30 11.06Q70.30 14.30 68.39 16.00Q66.48 17.69 63.14 17.69L63.14 17.69Q59.81 17.69 57.91 16.01Q56.02 14.33 56.02 11.06L56.02 11.06Q56.02 7.80 57.91 6.12Q59.81 4.44 63.14 4.44L63.14 4.44ZM63.14 7.68Q60.79 7.68 60.79 10.39L60.79 10.39L60.79 11.76Q60.79 14.45 63.14 14.45L63.14 14.45Q65.52 14.45 65.52 11.76L65.52 11.76L65.52 10.39Q65.52 7.68 63.14 7.68L63.14 7.68ZM80.30 4.42Q80.86 4.42 81.29 4.55Q81.72 4.68 81.72 4.70L81.72 4.70L81.72 8.71L80.18 8.71Q78.70 8.71 78.04 9.48Q77.38 10.25 77.38 11.76L77.38 11.76L77.38 17.40L72.60 17.40L72.60 4.73L76.51 4.73L76.82 6.65Q77.26 5.54 78.19 4.98Q79.13 4.42 80.30 4.42L80.30 4.42ZM92.62 4.44Q95.18 4.44 96.58 6.12Q97.97 7.80 97.97 11.09L97.97 11.09Q97.97 14.35 96.58 16.02Q95.18 17.69 92.62 17.69L92.62 17.69Q90.41 17.69 89.06 16.25L89.06 16.25L89.06 22.13L84.29 22.13L84.29 4.73L88.18 4.73L88.58 6.53Q89.98 4.44 92.62 4.44L92.62 4.44ZM91.13 7.97Q90.07 7.97 89.54 8.71Q89.02 9.46 89.02 10.66L89.02 10.66L89.02 11.45Q89.02 12.65 89.54 13.40Q90.07 14.16 91.13 14.16L91.13 14.16Q93.19 14.16 93.19 11.69L93.19 11.69L93.19 10.42Q93.19 7.97 91.13 7.97L91.13 7.97ZM104.98 17.40L99.89 17.40L99.89 12.62L104.98 12.62L104.98 17.40ZM112.80 3.24L108.02 3.24L108.02 0L112.80 0L112.80 3.24ZM112.80 17.40L108.02 17.40L108.02 4.73L112.80 4.73L112.80 17.40ZM122.40 4.44Q125.74 4.44 127.64 6.13Q129.55 7.82 129.55 11.06L129.55 11.06Q129.55 14.30 127.64 16.00Q125.74 17.69 122.40 17.69L122.40 17.69Q119.06 17.69 117.17 16.01Q115.27 14.33 115.27 11.06L115.27 11.06Q115.27 7.80 117.17 6.12Q119.06 4.44 122.40 4.44L122.40 4.44ZM122.40 7.68Q120.05 7.68 120.05 10.39L120.05 10.39L120.05 11.76Q120.05 14.45 122.40 14.45L122.40 14.45Q124.78 14.45 124.78 11.76L124.78 11.76L124.78 10.39Q124.78 7.68 122.40 7.68L122.40 7.68Z" transform="translate(0, 3.436)"></path><line x1="138.552" y1="2%" x2="138.552" y2="98%" stroke="#4c4b59" stroke-linecap="round"></line><g fill="#40a828" color="#40a828" transform="translate(147.552 0) scale(0.5686275)"><svg width="44.0" height="51.0" x="0.0" y="0.0" viewBox="0 0 44 51"><path fill="currentColor" fill-rule="evenodd" d="M21.998 0L0 12.571v25.143l4.19 2.395V15.002L21.999 4.827 39.81 15.002v20.28L21.998 45.459l-9.427-5.388V19.865l9.427-5.386 9.43 5.386v10.553l-9.43 5.387-1.045-.597V24.73l5.268-3.012-4.223-2.413-5.236 2.994v15.34l5.236 2.993 13.62-7.784V17.435l-13.62-7.781-13.617 7.78v25.068l13.617 7.784L44 37.714V12.571z"></path></svg></g></svg>